# xmcd
#
# Track frame offsets:
#	150
#	3310
#	26360
#	30099
#	42259
#	58132
#	74354
#	93364
#	111446
#	125906
#	143472
#	156664
#	174292
#	191158
#	204811
#	217954
#	228979
#	248434
#	264334
#	278272
#	293676
#	308840
#	312017
#	329323
#
# Disc length: 4668 seconds
#
# Revision: 1
# Processed by: cddbd v1.5.2PL0 Copyright (c) Steve Scherf et al.
# Submitted via: audiograbber 1.83.01
#
DISCID=40123a18
DTITLE=Retro - Jumping Out The Bag
DYEAR=2012
DGENRE=Rap
TTITLE0=Philthy Rich - Intro
TTITLE1=Retro, Dubb 20, Street Knowledge - Jumping Out The Bag
TTITLE2=Philthy Rich - Autopilot (Skit)
TTITLE3=Retro, Finguz, Charitte - Autopilot
TTITLE4=Retro, Liq - 25 Bands
TTITLE5=Retro - Valentine
TTITLE6=Retro,  J. Stalin, L'Jay - Hands Up
TTITLE7=Retro, Jonah Chollo - All I Know
TTITLE8=Retro, Jon, Badmouth - In My Loft
TTITLE9=Retro, Liq - Rockin Out
TTITLE10=Retro, T-Nutty - Gasoline
TTITLE11=Retro, J. Stalin, Jwes - "21"
TTITLE12=Retro - Nobody Else
TTITLE13=Retro, Inferno - Ima Beast
TTITLE14=Retro, Young Doe - Heade To The Money
TTITLE15=Retro, Rydah J. Klyde, Lil Rue - A.O.B.
TTITLE16=Retro, Miss Cashley, Terin - Fuck You Better
TTITLE17=Retro - Text Message
TTITLE18=Retro, Street Knowledge - Throwing Up The Mob
TTITLE19=Retro, Showtime, Bad Bizness - Dose Of You
TTITLE20=Retro, Lil Blood - Make It Rain
TTITLE21=Philthy Rich - Freak'n U (Skit)
TTITLE22=Retro, Philthy Rich, Lil Goofy - Freak'n U
TTITLE23=Retro, L'Jay - Blow It
EXTD=www.RapMusicGuide.com
EXTT0=
EXTT1=
EXTT2=
EXTT3=
EXTT4=
EXTT5=
EXTT6=
EXTT7=
EXTT8=
EXTT9=
EXTT10=
EXTT11=
EXTT12=
EXTT13=
EXTT14=
EXTT15=
EXTT16=
EXTT17=
EXTT18=
EXTT19=
EXTT20=
EXTT21=
EXTT22=
EXTT23=
PLAYORDER=
